<?xml version="1.0" encoding="UTF-8"?>
<svg id="Laag_2" xmlns="http://www.w3.org/2000/svg" version="1.1" viewBox="0 0 50 49.3">
  <!-- Generator: Adobe Illustrator 30.2.1, SVG Export Plug-In . SVG Version: 2.1.1 Build 1)  -->
  <defs>
    <style>
      .st0 {
        fill: #795fe0;
      }

      .st1 {
        fill: #aaa7f4;
      }

      .st2 {
        fill: #785ee0;
      }
    </style>
  </defs>
  <g id="Laag_1-2">
    <path class="st1" d="M.5,26.6c-.3,0-.6.3-.5.6,1.5,12.4,12.1,22,25,22l-7.8-22.6H.5Z"/>
    <path class="st1" d="M49.4,26.6h-16.5l-7.8,22.6c12.8,0,23.4-9.6,25-21.9,0-.4-.2-.7-.6-.7h0Z"/>
    <path class="st1" d="M25.5.4c-.2-.5-.9-.5-1,0l-8.2,23.7h17.4L25.5.4Z"/>
  </g>
  <path class="st0" d="M313.1-69.2l-10.1-25.3-9.8,25.3-24.5-10.5,10.8,24.1-25.9,10,24.3,8.9c1.1.4,1.3,1.5,1,1.9s-1.7,1-2.7.5c-9.8-4.2-20.1-6.2-30-11.5l29.3-11.4-12.4-26.7c-.4-.8.5-1.3.8-1.5.5-.5,1.6,0,2.4.4l25.2,11.8,9.8-26.5c.2-.7.5-1.2.8-1.4.4-.3,1.7-.5,2,.2l10.4,27.7,25.8-12.1c.7-.3,1.5-.4,1.8,0s1.1.7.7,1.5l-12.4,26.7,29.4,11.3c-10.2,5.3-20.7,7.5-30.8,11.7s-1.7-.5-1.9-.8c-.3-.5,0-1.6,1.1-2l24.1-8.8-25.6-9.7,10.7-24.5c-8.3,2-14.9,7.1-24.3,10.5Z"/>
  <path class="st0" d="M322.2-88.4l-19.3-29.2-19,29.1-34.4-10.2,12.9,37.1c-2.5,1.5-15.1,7.3-16.4,5.9-2.8-2.9,11.5-5.1,12.7-7.8l-13.4-39.3,37.2,10.9,18.5-28.7c.5-.8,1-1.2,1.6-1.3,1-.2,1.6.4,2.3,1.4l18.2,28.5,37.5-10.8-10.8,39.7c2.6,2.6,10.1,4.2,10.4,6.6.4,3.7-11.6-3.9-13.8-5l10.3-37.1-34.5,10.2Z"/>
  <path class="st2" d="M305.4-54.2l-3.7-7.8-3.4,7.5c-2.7.1-4.5-1.9-8-2.7l2.6,8.2-8,3.5c1.1.9,6.9,2.3,7.7,3.3,3.7,5.1-14.6-2-14.5-3.5,3.4-2.8,7.3-2.7,10.7-4.8l-3.9-11.7c4.7,0,7.8,3.4,11.8,4.3,2.1-3.8,2-8,5.2-11.4l5.1,11,11.6-4c0,4.4-3.3,7.4-4.2,11.6l11.3,5c-1.2,2.1-14,6.5-14.6,5.1s-.5-1.6.2-1.9l6.9-2.9-7.7-3.7,2.6-7.8-7.7,2.8Z"/>
</svg>